<svg xmlns="http://www.w3.org/2000/svg" width="30" height="28.674" viewBox="0 0 30 28.674">
  <path id="chat-left-quote-fill" d="M0,3.75A3.75,3.75,0,0,1,3.75,0h22.5A3.75,3.75,0,0,1,30,3.75v15a3.75,3.75,0,0,1-3.75,3.75H8.276a1.875,1.875,0,0,0-1.325.549L1.6,28.4A.938.938,0,0,1,0,27.737ZM13.489,8.936a3.165,3.165,0,0,0-.426-.51,2.751,2.751,0,0,0-.879-.608l-.015-.007A3.347,3.347,0,0,0,10.751,7.5,3.189,3.189,0,0,0,7.5,10.626a3.189,3.189,0,0,0,3.251,3.124,3.327,3.327,0,0,0,1.746-.487,6.1,6.1,0,0,1-1.519,2.288A.759.759,0,0,0,11,16.656a.839.839,0,0,0,1.151-.019c2.5-2.492,2.569-5.171,1.764-6.949a4.614,4.614,0,0,0-.426-.75Zm7.136,4.326a6.075,6.075,0,0,1-1.519,2.288.759.759,0,0,0,.022,1.106.837.837,0,0,0,1.149-.019c2.5-2.492,2.569-5.171,1.766-6.949a4.624,4.624,0,0,0-.427-.75,3.161,3.161,0,0,0-.426-.512,2.749,2.749,0,0,0-.879-.607L20.3,7.811A3.347,3.347,0,0,0,18.881,7.5a3.191,3.191,0,0,0-3.251,3.126,3.19,3.19,0,0,0,3.251,3.124,3.327,3.327,0,0,0,1.746-.487Z" fill="#ed892b"/>
</svg>
